<svg xmlns="http://www.w3.org/2000/svg" width="20" height="20" viewBox="0 0 20 20">
  <g id="headphones" transform="translate(1 1)">
    <path id="Path_11580" data-name="Path 11580" d="M3,18V12a9,9,0,0,1,18,0v6" transform="translate(-3 -3)" fill="none" stroke="#5d5d5d" stroke-linecap="round" stroke-linejoin="round" stroke-width="2"/>
    <path id="Path_11581" data-name="Path 11581" d="M21,19a2,2,0,0,1-2,2H18a2,2,0,0,1-2-2V16a2,2,0,0,1,2-2h3ZM3,19a2,2,0,0,0,2,2H6a2,2,0,0,0,2-2V16a2,2,0,0,0-2-2H3Z" transform="translate(-3 -3)" fill="none" stroke="#5d5d5d" stroke-linecap="round" stroke-linejoin="round" stroke-width="2"/>
  </g>
</svg>
