<svg xmlns="http://www.w3.org/2000/svg" width="23.303" height="23.344" viewBox="0 0 23.303 23.344">
  <g id="phone-missed" transform="translate(1.001 1.414)">
    <line id="Line_383" data-name="Line 383" x1="6" y2="6" transform="translate(14.888 0)" fill="none" stroke="#5d5d5d" stroke-linecap="round" stroke-linejoin="round" stroke-width="2"/>
    <line id="Line_384" data-name="Line 384" x2="6" y2="6" transform="translate(14.888 0)" fill="none" stroke="#5d5d5d" stroke-linecap="round" stroke-linejoin="round" stroke-width="2"/>
    <path id="Path_11629" data-name="Path 11629" d="M22,16.92v3a2,2,0,0,1-2.18,2,19.79,19.79,0,0,1-8.63-3.07,19.5,19.5,0,0,1-6-6A19.79,19.79,0,0,1,2.12,4.18,2,2,0,0,1,4.11,2h3a2,2,0,0,1,2,1.72,12.84,12.84,0,0,0,.7,2.81,2,2,0,0,1-.45,2.11L8.09,9.91a16,16,0,0,0,6,6l1.27-1.27a2,2,0,0,1,2.11-.45,12.84,12.84,0,0,0,2.81.7A2,2,0,0,1,22,16.92Z" transform="translate(-2.112 -1)" fill="none" stroke="#5d5d5d" stroke-linecap="round" stroke-linejoin="round" stroke-width="2"/>
  </g>
</svg>
