<svg xmlns="http://www.w3.org/2000/svg" width="77" height="77" viewBox="0 0 77 77">
  <g id="thumbs_up" data-name="thumbs up" transform="translate(-645 -282)">
    <rect id="Rectangle_875" data-name="Rectangle 875" width="77" height="77" rx="15" transform="translate(645 282)" fill="#e6ebf7" opacity="0.69"/>
    <path id="thumbs-up" d="M27.2,16.7V8.3A6.3,6.3,0,0,0,20.9,2L12.5,20.9V44H36.188a4.2,4.2,0,0,0,4.2-3.57l2.9-18.9a4.2,4.2,0,0,0-4.2-4.83ZM12.5,44H6.2A4.2,4.2,0,0,1,2,39.8V25.1a4.2,4.2,0,0,1,4.2-4.2h6.3" transform="translate(660.5 296.5)" fill="none" stroke="#4162ef" stroke-linecap="round" stroke-linejoin="round" stroke-width="4"/>
  </g>
</svg>
